<svg viewBox="0 0 80 80" fill="none" xmlns="http://www.w3.org/2000/svg">
<path d="M33.4005 6.21333C33.83 6.73229 34.0931 7.36738 34.1558 8.03657C34.2186 8.70576 34.0781 9.37828 33.7525 9.96724C31.2086 14.6114 29.8801 19.8171 29.8892 25.1054C29.8892 42.698 44.3126 56.9436 62.0889 56.9436C64.4078 56.9436 66.665 56.7029 68.8343 56.2435C69.4992 56.1004 70.1919 56.1551 70.8257 56.401C71.4596 56.6469 72.0065 57.073 72.3983 57.6261C72.8119 58.2012 73.0227 58.8961 72.9981 59.6027C72.9734 60.3093 72.7146 60.9879 72.2619 61.5331C68.8109 65.7483 64.4573 69.1446 59.5186 71.4744C54.5799 73.8041 49.1805 75.0086 43.7142 75C23.4299 75 7 58.7505 7 38.7297C7 23.6616 16.3018 10.7373 29.546 5.25954C30.2057 4.9823 30.9381 4.92539 31.6332 5.09738C32.3282 5.26937 32.9483 5.66096 33.4005 6.21333ZM28.3756 10.7329C23.2829 13.4491 19.0256 17.4866 16.0559 22.4162C13.0863 27.3458 11.5154 32.9834 11.5101 38.7297C11.5101 56.3179 25.9379 70.5635 43.7142 70.5635C47.9711 70.5709 52.1871 69.7386 56.1183 68.1149C60.0495 66.4913 63.6178 64.1085 66.6166 61.1044C65.1338 61.2881 63.6246 61.38 62.0889 61.38C41.8046 61.38 25.3791 45.1306 25.3791 25.1097C25.3791 20.0039 26.4439 15.1431 28.3756 10.7329Z" fill="white"/>
</svg>
