<svg viewBox="0 0 80 80" fill="none" xmlns="http://www.w3.org/2000/svg">
<g clip-path="url(#clip0_3_67)">
<path d="M35.9947 40C38.3821 39.9997 40.7457 40.4613 42.9478 41.3579C45.1499 42.2545 47.1466 43.5682 48.8216 45.2225C50.4965 46.8768 51.8162 48.8385 52.7038 50.9936C53.5915 53.1486 54.0293 55.4539 53.9917 57.775C53.9855 58.1599 54.0707 58.5409 54.2408 58.8885C54.4108 59.2361 54.6611 59.5408 54.9722 59.7789C55.2832 60.0169 55.6465 60.182 56.0339 60.2611C56.4213 60.3402 56.8223 60.3313 57.2055 60.235C58.3453 59.9519 59.5366 59.9255 60.6884 60.1579C61.8403 60.3903 62.9225 60.8753 63.8523 61.576C64.7822 62.2767 65.5353 63.1746 66.0543 64.2012C66.5732 65.2278 66.8443 66.3561 66.8468 67.5C66.8468 69.4891 66.0342 71.3968 64.5877 72.8033C63.1412 74.2098 61.1794 75 59.1338 75H15.4266C14.0593 74.9925 12.7073 74.72 11.4497 74.1983C10.192 73.6767 9.054 72.9164 8.10212 71.962C7.15025 71.0076 6.40364 69.8782 5.90599 68.6399C5.40834 67.4016 5.16962 66.0792 5.20381 64.7501C5.238 63.421 5.54441 62.1119 6.1051 60.8993C6.6658 59.6868 7.46953 58.5951 8.46929 57.6881C9.46905 56.7812 10.6448 56.0772 11.9276 55.6174C13.2105 55.1575 14.5748 54.9511 15.9408 55.01C16.5324 55.0385 17.116 54.8675 17.5929 54.5258C18.0698 54.1842 18.4107 53.6929 18.5581 53.135C19.5557 49.3758 21.8098 46.0455 24.9662 43.6678C28.1225 41.2902 32.002 39.9999 35.9947 40ZM58.9949 55C58.4164 49.9307 56.0838 45.2029 52.3795 41.5918C48.6752 37.9807 43.8191 35.7006 38.6073 35.1252C33.3954 34.5499 28.1372 35.7134 23.6947 38.4251C19.2522 41.1369 15.889 45.2358 14.1565 50.05C10.1865 50.366 6.49616 52.1629 3.85785 55.0647C1.21954 57.9665 -0.162169 61.7481 0.00194108 65.618C0.166052 69.4879 1.86326 73.1461 4.73831 75.8268C7.61335 78.5075 11.4433 80.0029 15.4266 80H59.1338C62.5431 80 65.8129 78.6831 68.2237 76.3389C70.6345 73.9946 71.9888 70.8152 71.9888 67.5C71.9888 64.1848 70.6345 61.0054 68.2237 58.6612C65.8129 56.317 62.5431 55 59.1338 55H58.9949Z" fill="white"/>
<path d="M55.5888 16.0265C55.8254 15.6919 55.9464 15.2961 55.935 14.8937C55.9237 14.4913 55.7805 14.1022 55.5254 13.7799C55.2702 13.4576 54.9156 13.2181 54.5104 13.0943C54.1052 12.9705 53.6693 12.9686 53.2629 13.0887C49.0005 14.3505 45.3479 16.9971 42.952 20.5601C40.556 24.1232 39.5712 28.3726 40.1719 32.5561C41.6444 32.6914 43.0991 32.9638 44.515 33.3693C43.8793 30.8086 44.0186 28.1305 44.9169 25.641C45.8152 23.1515 47.4363 20.9511 49.5949 19.2912C48.882 21.8898 48.7975 24.6068 49.3478 27.2405C49.898 29.8742 51.069 32.3568 52.7736 34.5041C54.4781 36.6514 56.6726 38.4081 59.194 39.6438C61.7154 40.8795 64.4989 41.5624 67.3377 41.6419C64.64 43.4142 61.3925 44.2826 58.1123 44.1089C58.7792 45.3424 59.3267 46.6459 59.7343 48C62.7065 47.8804 65.6069 47.0991 68.1993 45.7197C70.7918 44.3403 73.003 42.4019 74.6531 40.0621C74.8897 39.7274 75.0106 39.3316 74.9993 38.9292C74.9879 38.5268 74.8448 38.1377 74.5896 37.8154C74.3345 37.4932 73.9799 37.2536 73.5746 37.1298C73.1694 37.006 72.7336 37.0041 72.3271 37.1243C69.4072 37.9906 66.2749 37.9795 63.3619 37.0924C60.449 36.2054 57.8988 34.4861 56.063 32.1716C54.2272 29.8571 53.1962 27.0614 53.112 24.1697C53.0278 21.2781 53.8905 18.433 55.5888 16.0265Z" fill="white"/>
</g>
<defs>
<clipPath id="clip0_3_67">
<rect width="80" height="80" fill="white"/>
</clipPath>
</defs>
</svg>
