<svg viewBox="0 0 80 80" fill="none" xmlns="http://www.w3.org/2000/svg">
<g clip-path="url(#clip0_3_111)">
<path d="M80 37.5C80.0004 39.8915 79.3147 42.233 78.0243 44.2466C76.7339 46.2601 74.893 47.8613 72.72 48.86C71.8491 47.3317 70.7535 45.9428 69.47 44.74C71.3901 44.2168 73.0238 42.9523 74.0117 41.2247C74.9995 39.497 75.2606 37.4476 74.7375 35.5275C74.2143 33.6073 72.9498 31.9736 71.2222 30.9858C69.4945 29.9979 67.4451 29.7368 65.525 30.26C65.1794 30.3536 64.8178 30.372 64.4645 30.3138C64.1112 30.2556 63.7746 30.1222 63.4773 29.9226C63.1801 29.723 62.9292 29.4619 62.7416 29.1569C62.554 28.852 62.4341 28.5103 62.39 28.155C62.0364 25.2916 60.8645 22.591 59.0149 20.3767C57.1652 18.1625 54.7163 16.5287 51.9615 15.6712C49.2068 14.8136 46.2632 14.7687 43.4836 15.5418C40.704 16.3149 38.2063 17.8732 36.29 20.03C34.1535 19.9319 32.0128 20.0796 29.91 20.47C31.8274 16.939 34.7634 14.0671 38.3358 12.2281C41.9082 10.389 45.9515 9.66804 49.9394 10.159C53.9273 10.6499 57.675 12.33 60.6947 14.9806C63.7144 17.6312 65.8662 21.1294 66.87 25.02C68.562 24.9346 70.2538 25.1941 71.8425 25.7826C73.4312 26.3712 74.8837 27.2766 76.1117 28.4438C77.3397 29.6111 78.3176 31.0157 78.986 32.5725C79.6544 34.1293 79.9994 35.8058 80 37.5Z" fill="white"/>
<path d="M35 25C40.5352 24.9989 45.8766 27.0383 50.0027 30.728C54.1288 34.4178 56.75 39.499 57.365 45H57.5C60.8152 45 63.9946 46.317 66.3388 48.6612C68.683 51.0054 70 54.1848 70 57.5C70 60.8152 68.683 63.9946 66.3388 66.3388C63.9946 68.683 60.8152 70 57.5 70H15C11.1268 70.0029 7.40258 68.5075 4.60694 65.8268C1.81131 63.1461 0.160974 59.4879 0.00139586 55.618C-0.158182 51.7481 1.18537 47.9664 3.75081 45.0647C6.31624 42.1629 9.90469 40.366 13.765 40.05C15.3101 35.6512 18.183 31.8407 21.9868 29.1448C25.7906 26.4489 30.3377 25.0006 35 25ZM52.5 47.5C52.5029 43.2376 50.9502 39.1207 48.1331 35.9219C45.316 32.7231 41.4283 30.6624 37.1998 30.1267C32.9712 29.5909 28.6924 30.6168 25.1665 33.0119C21.6407 35.407 19.1102 39.0066 18.05 43.135C17.9065 43.6938 17.5743 44.1857 17.1095 44.5274C16.6447 44.8692 16.0761 45.0397 15.5 45.01C14.1718 44.951 12.8452 45.1575 11.5977 45.6174C10.3503 46.0772 9.20702 46.7812 8.23488 47.6881C7.26273 48.5951 6.4812 49.6867 5.93599 50.8993C5.39078 52.1119 5.09283 53.421 5.05959 54.7501C5.02635 56.0792 5.25847 57.4016 5.74238 58.6399C6.22628 59.8782 6.95226 61.0076 7.87785 61.962C8.80344 62.9164 9.91005 63.6767 11.1329 64.1983C12.3559 64.7199 13.6705 64.9925 15 65H57.5C58.5634 64.9975 59.6142 64.769 60.5825 64.3294C61.5509 63.8899 62.4147 63.2494 63.1166 62.4506C63.8186 61.6517 64.3426 60.7127 64.654 59.6959C64.9653 58.6791 65.0569 57.6076 64.9226 56.5527C64.7883 55.4978 64.4311 54.4835 63.8749 53.5771C63.3187 52.6708 62.576 51.893 61.6963 51.2956C60.8166 50.6981 59.8198 50.2946 58.7722 50.1117C57.7246 49.9289 56.6501 49.9709 55.62 50.235C55.2476 50.3304 54.8583 50.3386 54.4823 50.259C54.1063 50.1795 53.7536 50.0143 53.4518 49.7763C53.15 49.5384 52.9071 49.234 52.742 48.8869C52.5769 48.5398 52.4941 48.1593 52.5 47.775V47.5Z" fill="white"/>
</g>
<defs>
<clipPath id="clip0_3_111">
<rect width="80" height="80" fill="white"/>
</clipPath>
</defs>
</svg>
