<svg viewBox="0 0 80 80" fill="none" xmlns="http://www.w3.org/2000/svg">
<path d="M18.6888 64.5798C18.9694 64.6601 19.2287 64.787 19.452 64.9533C19.6754 65.1197 19.8583 65.3221 19.9904 65.5492C20.1225 65.7762 20.2011 66.0233 20.2218 66.2764C20.2425 66.5296 20.2049 66.7837 20.111 67.0243L17.8607 72.817C17.6559 73.2845 17.2479 73.6657 16.7224 73.8805C16.197 74.0953 15.595 74.1271 15.0429 73.9692C14.4907 73.8113 14.0313 73.4759 13.7612 73.0335C13.4911 72.5911 13.4312 72.0762 13.5942 71.5967L15.8445 65.804C16.0325 65.3181 16.4378 64.9161 16.9712 64.6865C17.5046 64.4569 18.1225 64.4186 18.6888 64.5798ZM32.1905 64.5798C32.4711 64.6601 32.7304 64.787 32.9537 64.9533C33.1771 65.1197 33.36 65.3221 33.4921 65.5492C33.6242 65.7762 33.7028 66.0233 33.7235 66.2764C33.7442 66.5296 33.7066 66.7837 33.6127 67.0243L29.1121 78.6097C28.9073 79.0772 28.4993 79.4584 27.9739 79.6732C27.4484 79.888 26.8464 79.9198 26.2943 79.7619C25.7421 79.604 25.2828 79.2686 25.0126 78.8262C24.7425 78.3838 24.6826 77.8689 24.8456 77.3894L29.3462 65.804C29.5342 65.3181 29.9395 64.9161 30.4729 64.6865C31.0063 64.4569 31.6242 64.4186 32.1905 64.5798ZM45.6922 64.5798C45.9728 64.6601 46.2321 64.787 46.4554 64.9533C46.6788 65.1197 46.8617 65.3221 46.9938 65.5492C47.1259 65.7762 47.2045 66.0233 47.2252 66.2764C47.2459 66.5296 47.2083 66.7837 47.1144 67.0243L44.8641 72.817C44.6593 73.2845 44.2513 73.6657 43.7258 73.8805C43.2004 74.0953 42.5984 74.1271 42.0463 73.9692C41.4941 73.8113 41.0347 73.4759 40.7646 73.0335C40.4945 72.5911 40.4346 72.0762 40.5976 71.5967L42.8479 65.804C43.0359 65.3181 43.4412 64.9161 43.9746 64.6865C44.508 64.4569 45.1259 64.4186 45.6922 64.5798ZM59.1939 64.5798C59.4745 64.6601 59.7338 64.787 59.9571 64.9533C60.1805 65.1197 60.3634 65.3221 60.4955 65.5492C60.6276 65.7762 60.7062 66.0233 60.7269 66.2764C60.7476 66.5296 60.71 66.7837 60.6161 67.0243L56.1156 78.6097C56.0308 78.8591 55.8883 79.0912 55.6965 79.2922C55.5048 79.4932 55.2678 79.6589 54.9996 79.7794C54.7315 79.9 54.4378 79.9729 54.1361 79.9938C53.8344 80.0146 53.5308 79.983 53.2437 79.9009C52.9565 79.8188 52.6916 79.6878 52.4648 79.5157C52.238 79.3437 52.054 79.1342 51.9238 78.8997C51.7936 78.6652 51.7199 78.4106 51.707 78.1511C51.6942 77.8916 51.7425 77.6325 51.849 77.3894L56.3496 65.804C56.5376 65.3181 56.9429 64.9161 57.4763 64.6865C58.0097 64.4569 58.6276 64.4186 59.1939 64.5798ZM60.3056 37.5549C59.371 33.5123 56.9537 29.8322 53.4071 27.0527C49.8605 24.2732 45.3708 22.5402 40.5942 22.107C35.8176 21.6738 31.0048 22.5631 26.8594 24.645C22.7141 26.7268 19.4536 29.892 17.5547 33.6777C15.4252 33.4672 13.268 33.6319 11.2153 34.1616C9.16252 34.6914 7.25737 35.575 5.61648 36.7585C3.97558 37.9421 2.63346 39.4005 1.67229 41.0446C0.71112 42.6886 0.15113 44.4838 0.0266033 46.32C-0.0979237 48.1562 0.215633 49.995 0.948076 51.7236C1.68052 53.4522 2.81644 55.0344 4.28628 56.3732C5.75612 57.7121 7.52896 58.7794 9.49625 59.5099C11.4635 60.2404 13.5839 60.6186 15.7275 60.6215H58.4828C61.9083 60.6248 65.2071 59.5109 67.7112 57.5053C70.2153 55.4997 71.7373 52.7524 71.969 49.8198C72.2008 46.8873 71.1249 43.9888 68.9592 41.7115C66.7936 39.4342 63.7002 37.9484 60.3056 37.5549ZM38.2303 25.8653C42.6587 25.8645 46.932 27.2643 50.2332 29.797C53.5344 32.3298 55.6319 35.8177 56.1245 39.594C56.1857 40.0684 56.4496 40.5066 56.8651 40.824C57.2807 41.1413 57.8185 41.3154 58.3748 41.3125H58.4828C60.8701 41.3125 63.1596 42.1262 64.8476 43.5747C66.5357 45.0231 67.484 46.9877 67.484 49.0361C67.484 51.0845 66.5357 53.049 64.8476 54.4975C63.1596 55.9459 60.8701 56.7597 58.4828 56.7597H15.7275C14.1346 56.759 12.56 56.4681 11.108 55.9063C9.65591 55.3444 8.35942 54.5244 7.30427 53.5005C6.24912 52.4766 5.45936 51.2721 4.98723 49.9668C4.51511 48.6614 4.37138 47.2849 4.56555 45.9283C4.75973 44.5717 5.28738 43.2659 6.1136 42.0974C6.93982 40.9288 8.04579 39.9241 9.35833 39.1497C10.6709 38.3754 12.1601 37.8489 13.7274 37.6053C15.2948 37.3617 16.9046 37.4064 18.4503 37.7364C19.0018 37.8545 19.5848 37.7891 20.0824 37.5534C20.58 37.3177 20.9552 36.9292 21.1326 36.4659C22.3221 33.381 24.6143 30.6963 27.6837 28.7932C30.7531 26.8902 34.4435 25.8657 38.2303 25.8653Z" fill="white"/>
<path d="M54.6162 1.94609C54.6162 1.42996 54.3938 0.934961 53.9979 0.569997C53.602 0.205034 53.0651 0 52.5053 0C51.9455 0 51.4086 0.205034 51.0127 0.569997C50.6168 0.934961 50.3944 1.42996 50.3944 1.94609V5.83828C50.3944 6.35442 50.6168 6.84941 51.0127 7.21437C51.4086 7.57934 51.9455 7.78437 52.5053 7.78437C53.0651 7.78437 53.602 7.57934 53.9979 7.21437C54.3938 6.84941 54.6162 6.35442 54.6162 5.83828V1.94609ZM70.4181 9.59035C70.6197 9.41083 70.7805 9.19608 70.8911 8.95865C71.0017 8.72122 71.06 8.46586 71.0624 8.20745C71.0648 7.94905 71.0114 7.69279 70.9053 7.45363C70.7992 7.21446 70.6424 6.99717 70.4442 6.81445C70.246 6.63173 70.0103 6.48722 69.7509 6.38937C69.4915 6.29152 69.2136 6.24228 68.9333 6.24453C68.653 6.24677 68.376 6.30046 68.1185 6.40245C67.8609 6.50444 67.628 6.6527 67.4333 6.83857L64.4443 9.59035C64.048 9.95577 63.8253 10.4514 63.8253 10.9682C63.8253 11.485 64.048 11.9806 64.4443 12.346C64.8407 12.7114 65.3783 12.9167 65.9388 12.9167C66.4994 12.9167 67.0369 12.7114 67.4333 12.346L70.4181 9.59035ZM37.5773 6.83857C37.1792 6.48407 36.646 6.28792 36.0925 6.29235C35.5391 6.29679 35.0096 6.50146 34.6183 6.86228C34.2269 7.2231 34.0049 7.7112 34.0001 8.22146C33.9953 8.73172 34.208 9.22331 34.5925 9.59035L37.5773 12.346C37.7736 12.527 38.0066 12.6705 38.263 12.7684C38.5194 12.8663 38.7942 12.9167 39.0718 12.9167C39.3493 12.9167 39.6242 12.8663 39.8806 12.7684C40.137 12.6705 40.37 12.527 40.5663 12.346C40.7625 12.1651 40.9182 11.9503 41.0244 11.7139C41.1306 11.4775 41.1853 11.2241 41.1853 10.9682C41.1853 10.7123 41.1306 10.4589 41.0244 10.2225C40.9182 9.98609 40.7625 9.77129 40.5663 9.59035L37.5773 6.83857ZM44.8978 19.9708C45.4225 18.9683 46.1743 18.0813 47.1024 17.3694C48.0306 16.6576 49.1135 16.1375 50.2782 15.8444C51.4429 15.5512 52.6623 15.4917 53.854 15.6699C55.0458 15.8482 56.1822 16.2599 57.1867 16.8775C58.1912 17.4951 59.0403 18.304 59.6768 19.2499C60.3133 20.1957 60.7224 21.2564 60.8765 22.3604C61.0306 23.4643 60.9261 24.5859 60.5701 25.6495C60.214 26.7131 59.6147 27.6939 58.8126 28.5258C59.6527 29.6195 60.383 30.7911 60.991 32.021C62.4217 30.8292 63.5383 29.352 64.2558 27.7019C64.9733 26.0519 65.2727 24.2726 65.1311 22.4997C64.9895 20.7268 64.4107 19.0071 63.4388 17.4717C62.4669 15.9363 61.1276 14.6258 59.523 13.6401C57.9183 12.6543 56.0908 12.0194 54.1796 11.7837C52.2684 11.5479 50.3241 11.7176 48.4948 12.2798C46.6656 12.842 44.9997 13.7819 43.6242 15.0277C42.2487 16.2735 41.1999 17.7925 40.5578 19.4687C42.0439 19.5115 43.4961 19.6828 44.8978 19.9708ZM63.828 35.8276C66.361 36.6644 68.5774 38.124 70.2534 40C70.4832 39.8284 70.6714 39.6142 70.8057 39.3712C70.94 39.1283 71.0174 38.8621 71.0329 38.5898C71.0484 38.3175 71.0017 38.0452 70.8958 37.7907C70.7899 37.5361 70.6271 37.3049 70.4181 37.112L67.4333 34.3602C67.1324 34.0811 66.7468 33.8927 66.3273 33.8198C65.9079 33.7469 65.4743 33.793 65.0838 33.9519C64.6933 34.1108 64.3643 34.3751 64.1401 34.71C63.9159 35.0449 63.807 35.4345 63.828 35.8276ZM71.503 21.407C70.9432 21.407 70.4063 21.6121 70.0104 21.977C69.6146 22.342 69.3922 22.837 69.3922 23.3531C69.3922 23.8693 69.6146 24.3642 70.0104 24.7292C70.4063 25.0942 70.9432 25.2992 71.503 25.2992H75.7248C76.2846 25.2992 76.8215 25.0942 77.2174 24.7292C77.6132 24.3642 77.8356 23.8693 77.8356 23.3531C77.8356 22.837 77.6132 22.342 77.2174 21.977C76.8215 21.6121 76.2846 21.407 75.7248 21.407H71.503Z" fill="white"/>
</svg>
