<svg viewBox="0 0 80 80" fill="none" xmlns="http://www.w3.org/2000/svg">
<g clip-path="url(#clip0_3_116)">
<path d="M13.29 55.13C13.9183 55.3399 14.4375 55.7906 14.7338 56.3831C15.03 56.9756 15.079 57.6614 14.87 58.29L12.37 65.79C12.2758 66.1128 12.1175 66.4133 11.9045 66.6736C11.6915 66.9338 11.4281 67.1484 11.1302 67.3044C10.8324 67.4605 10.5061 67.5549 10.1709 67.5819C9.83565 67.6089 9.49844 67.568 9.17941 67.4617C8.86038 67.3553 8.56608 67.1857 8.31413 66.963C8.06218 66.7402 7.85776 66.469 7.7131 66.1654C7.56844 65.8618 7.48652 65.5321 7.47224 65.1962C7.45795 64.8602 7.51161 64.5247 7.62998 64.21L10.13 56.71C10.3399 56.0817 10.7906 55.5624 11.3831 55.2662C11.9756 54.9699 12.6614 54.921 13.29 55.13ZM60.79 55.13C61.4183 55.3399 61.9375 55.7906 62.2338 56.3831C62.53 56.9756 62.579 57.6614 62.37 58.29L59.87 65.79C59.7758 66.1128 59.6175 66.4133 59.4045 66.6736C59.1915 66.9338 58.9281 67.1484 58.6302 67.3044C58.3324 67.4605 58.0061 67.5549 57.6709 67.5819C57.3357 67.6089 56.9984 67.568 56.6794 67.4617C56.3604 67.3553 56.0661 67.1857 55.8141 66.963C55.5622 66.7402 55.3578 66.469 55.2131 66.1654C55.0684 65.8618 54.9865 65.5321 54.9722 65.1962C54.958 64.8602 55.0116 64.5247 55.13 64.21L57.63 56.71C57.8399 56.0817 58.2906 55.5624 58.8831 55.2662C59.4756 54.9699 60.1614 54.921 60.79 55.13ZM23.29 62.63C23.9183 62.8399 24.4375 63.2906 24.7338 63.8831C25.03 64.4756 25.079 65.1614 24.87 65.79L22.37 73.29C22.2758 73.6128 22.1175 73.9133 21.9045 74.1736C21.6915 74.4338 21.4281 74.6484 21.1302 74.8044C20.8324 74.9605 20.5061 75.0549 20.1709 75.0819C19.8357 75.1089 19.4984 75.068 19.1794 74.9617C18.8604 74.8553 18.5661 74.6857 18.3141 74.463C18.0622 74.2402 17.8578 73.969 17.7131 73.6654C17.5684 73.3618 17.4865 73.0321 17.4722 72.6962C17.458 72.3602 17.5116 72.0247 17.63 71.71L20.13 64.21C20.3399 63.5817 20.7906 63.0624 21.3831 62.7662C21.9756 62.4699 22.6614 62.421 23.29 62.63ZM70.79 62.63C71.4183 62.8399 71.9375 63.2906 72.2338 63.8831C72.53 64.4756 72.579 65.1614 72.37 65.79L69.87 73.29C69.7758 73.6128 69.6175 73.9133 69.4045 74.1736C69.1915 74.4338 68.9281 74.6484 68.6302 74.8044C68.3324 74.9605 68.0061 75.0549 67.6709 75.0819C67.3357 75.1089 66.9984 75.068 66.6794 74.9617C66.3604 74.8553 66.0661 74.6857 65.8141 74.463C65.5622 74.2402 65.3578 73.969 65.2131 73.6654C65.0684 73.3618 64.9865 73.0321 64.9722 72.6962C64.958 72.3602 65.0116 72.0247 65.13 71.71L67.63 64.21C67.8399 63.5817 68.2906 63.0624 68.8831 62.7662C69.4756 62.4699 70.1614 62.421 70.79 62.63ZM67.025 20.135C65.9867 14.9008 63.3011 10.136 59.361 6.53737C55.4209 2.93872 50.4328 0.694909 45.1262 0.134023C39.8196 -0.426863 34.4727 0.724591 29.8673 3.42003C25.2619 6.11547 21.6396 10.2135 19.53 15.115C17.1642 14.8424 14.7676 15.0556 12.4871 15.7415C10.2065 16.4274 8.08996 17.5715 6.26696 19.1039C4.44397 20.6362 2.95292 22.5245 1.88509 24.6531C0.817256 26.7818 0.195123 29.1059 0.0567772 31.4834C-0.0815687 33.8608 0.266784 36.2415 1.08051 38.4796C1.89423 40.7177 3.1562 42.7662 4.78915 44.4996C6.4221 46.2331 8.39168 47.615 10.5773 48.5608C12.7629 49.5065 15.1185 49.9963 17.5 50H65C68.8055 50.0043 72.4705 48.5621 75.2524 45.9653C78.0344 43.3686 79.7253 39.8116 79.9828 36.0147C80.2402 32.2179 79.0449 28.4652 76.6389 25.5167C74.233 22.5682 70.7963 20.6444 67.025 20.135ZM42.5 4.99998C47.4198 4.99896 52.1673 6.81133 55.8349 10.0905C59.5024 13.3698 61.8327 17.8857 62.38 22.775C62.448 23.3893 62.7411 23.9566 63.2027 24.3675C63.6644 24.7784 64.2619 25.0037 64.88 25H65C67.6521 25 70.1957 26.0535 72.071 27.9289C73.9464 29.8043 75 32.3478 75 35C75 37.6521 73.9464 40.1957 72.071 42.071C70.1957 43.9464 67.6521 45 65 45H17.5C15.7303 44.9991 13.9811 44.6225 12.3679 43.895C10.7547 43.1676 9.3143 42.1059 8.14205 40.7803C6.96981 39.4546 6.09241 37.8951 5.56789 36.205C5.04338 34.5149 4.8837 32.7326 5.09942 30.9762C5.31514 29.2198 5.90134 27.5292 6.81926 26.0162C7.73717 24.5033 8.96586 23.2024 10.4241 22.1998C11.8823 21.1972 13.5367 20.5156 15.278 20.2002C17.0193 19.8847 18.8077 19.9426 20.525 20.37C21.1376 20.5228 21.7854 20.4381 22.3382 20.133C22.891 19.8278 23.3078 19.3248 23.505 18.725C24.8264 14.7309 27.3731 11.2548 30.7831 8.79088C34.1931 6.32694 38.2929 5.00047 42.5 4.99998ZM35.265 56.38C35.4728 55.9652 35.7919 55.6165 36.1866 55.3728C36.5813 55.1291 37.0361 55 37.5 55H42.5C42.8959 55.0003 43.2861 55.0946 43.6384 55.2752C43.9908 55.4558 44.2952 55.7175 44.5266 56.0387C44.758 56.36 44.9098 56.7316 44.9695 57.123C45.0292 57.5144 44.9951 57.9143 44.87 58.29L43.47 62.5H47.5C47.9704 62.5006 48.4311 62.634 48.8291 62.8848C49.2271 63.1356 49.5463 63.4936 49.75 63.9176C49.9536 64.3417 50.0335 64.8146 49.9805 65.282C49.9274 65.7494 49.7435 66.1924 49.45 66.56L39.45 79.06C39.0932 79.5032 38.5959 79.8115 38.0402 79.9338C37.4845 80.0562 36.9037 79.9853 36.3938 79.733C35.8838 79.4806 35.4752 79.0618 35.2354 78.5458C34.9956 78.0298 34.939 77.4475 35.075 76.895L36.8 70H32.5C32.0737 70 31.6544 69.8909 31.2821 69.6832C30.9098 69.4755 30.5968 69.1761 30.3728 68.8133C30.1489 68.4506 30.0214 68.0366 30.0025 67.6107C29.9836 67.1848 30.074 66.7611 30.265 66.38L35.265 56.38Z" fill="white"/>
</g>
<defs>
<clipPath id="clip0_3_116">
<rect width="80" height="80" fill="white"/>
</clipPath>
</defs>
</svg>
