<svg viewBox="0 0 80 80" fill="none" xmlns="http://www.w3.org/2000/svg">
<g clip-path="url(#clip0_3_65)">
<path d="M40 55C36.0218 55 32.2064 53.4196 29.3934 50.6066C26.5804 47.7936 25 43.9782 25 40C25 36.0218 26.5804 32.2064 29.3934 29.3934C32.2064 26.5804 36.0218 25 40 25C43.9782 25 47.7936 26.5804 50.6066 29.3934C53.4196 32.2064 55 36.0218 55 40C55 43.9782 53.4196 47.7936 50.6066 50.6066C47.7936 53.4196 43.9782 55 40 55ZM40 60C45.3043 60 50.3914 57.8929 54.1421 54.1421C57.8929 50.3914 60 45.3043 60 40C60 34.6957 57.8929 29.6086 54.1421 25.8579C50.3914 22.1071 45.3043 20 40 20C34.6957 20 29.6086 22.1071 25.8579 25.8579C22.1071 29.6086 20 34.6957 20 40C20 45.3043 22.1071 50.3914 25.8579 54.1421C29.6086 57.8929 34.6957 60 40 60ZM40 0C40.663 0 41.2989 0.263392 41.7678 0.732233C42.2366 1.20107 42.5 1.83696 42.5 2.5V12.5C42.5 13.163 42.2366 13.7989 41.7678 14.2678C41.2989 14.7366 40.663 15 40 15C39.337 15 38.7011 14.7366 38.2322 14.2678C37.7634 13.7989 37.5 13.163 37.5 12.5V2.5C37.5 1.83696 37.7634 1.20107 38.2322 0.732233C38.7011 0.263392 39.337 0 40 0ZM40 65C40.663 65 41.2989 65.2634 41.7678 65.7322C42.2366 66.2011 42.5 66.837 42.5 67.5V77.5C42.5 78.163 42.2366 78.7989 41.7678 79.2678C41.2989 79.7366 40.663 80 40 80C39.337 80 38.7011 79.7366 38.2322 79.2678C37.7634 78.7989 37.5 78.163 37.5 77.5V67.5C37.5 66.837 37.7634 66.2011 38.2322 65.7322C38.7011 65.2634 39.337 65 40 65ZM80 40C80 40.663 79.7366 41.2989 79.2678 41.7678C78.7989 42.2366 78.163 42.5 77.5 42.5H67.5C66.837 42.5 66.2011 42.2366 65.7322 41.7678C65.2634 41.2989 65 40.663 65 40C65 39.337 65.2634 38.7011 65.7322 38.2322C66.2011 37.7634 66.837 37.5 67.5 37.5H77.5C78.163 37.5 78.7989 37.7634 79.2678 38.2322C79.7366 38.7011 80 39.337 80 40ZM15 40C15 40.663 14.7366 41.2989 14.2678 41.7678C13.7989 42.2366 13.163 42.5 12.5 42.5H2.5C1.83696 42.5 1.20107 42.2366 0.732233 41.7678C0.263392 41.2989 0 40.663 0 40C0 39.337 0.263392 38.7011 0.732233 38.2322C1.20107 37.7634 1.83696 37.5 2.5 37.5H12.5C13.163 37.5 13.7989 37.7634 14.2678 38.2322C14.7366 38.7011 15 39.337 15 40ZM68.285 11.715C68.7537 12.1838 69.017 12.8196 69.017 13.4825C69.017 14.1454 68.7537 14.7812 68.285 15.25L61.215 22.325C60.9826 22.5571 60.7067 22.7412 60.4031 22.8667C60.0995 22.9922 59.7742 23.0566 59.4457 23.0564C58.7823 23.0559 58.1463 22.7919 57.6775 22.3225C57.4454 22.0901 57.2613 21.8142 57.1358 21.5106C57.0103 21.207 56.9459 20.8817 56.9461 20.5532C56.9466 19.8898 57.2106 19.2538 57.68 18.785L64.75 11.715C65.2188 11.2463 65.8546 10.983 66.5175 10.983C67.1804 10.983 67.8162 11.2463 68.285 11.715ZM22.32 57.68C22.7887 58.1488 23.052 58.7846 23.052 59.4475C23.052 60.1104 22.7887 60.7462 22.32 61.215L15.25 68.285C14.7785 68.7404 14.147 68.9924 13.4915 68.9867C12.836 68.981 12.209 68.7181 11.7455 68.2545C11.2819 67.791 11.019 67.164 11.0133 66.5085C11.0076 65.853 11.2596 65.2215 11.715 64.75L18.785 57.68C19.2538 57.2113 19.8896 56.948 20.5525 56.948C21.2154 56.948 21.8512 57.2113 22.32 57.68ZM68.285 68.285C67.8162 68.7537 67.1804 69.017 66.5175 69.017C65.8546 69.017 65.2188 68.7537 64.75 68.285L57.68 61.215C57.2246 60.7435 56.9726 60.112 56.9783 59.4565C56.984 58.801 57.2469 58.174 57.7105 57.7105C58.174 57.2469 58.801 56.984 59.4565 56.9783C60.112 56.9726 60.7435 57.2246 61.215 57.68L68.285 64.75C68.7537 65.2188 69.017 65.8546 69.017 66.5175C69.017 67.1804 68.7537 67.8162 68.285 68.285ZM22.32 22.325C21.8512 22.7937 21.2154 23.057 20.5525 23.057C19.8896 23.057 19.2538 22.7937 18.785 22.325L11.715 15.25C11.4762 15.0194 11.2858 14.7435 11.1547 14.4385C11.0237 14.1335 10.9548 13.8055 10.9519 13.4735C10.949 13.1416 11.0122 12.8124 11.1379 12.5051C11.2636 12.1979 11.4493 11.9187 11.684 11.684C11.9187 11.4493 12.1979 11.2636 12.5051 11.1379C12.8124 11.0122 13.1416 10.949 13.4735 10.9519C13.8055 10.9548 14.1335 11.0237 14.4385 11.1547C14.7435 11.2858 15.0194 11.4762 15.25 11.715L22.32 18.785C22.5528 19.0172 22.7375 19.2931 22.8636 19.5968C22.9896 19.9006 23.0545 20.2262 23.0545 20.555C23.0545 20.8838 22.9896 21.2094 22.8636 21.5132C22.7375 21.8169 22.5528 22.0928 22.32 22.325Z" fill="black"/>
</g>
<defs>
<clipPath id="clip0_3_65">
<rect width="80" height="80" fill="white"/>
</clipPath>
</defs>
</svg>
