<svg viewBox="0 0 80 80" fill="none" xmlns="http://www.w3.org/2000/svg">
<g clip-path="url(#clip0_3_72)">
<path d="M35.9945 40C38.3819 39.9997 40.7455 40.4613 42.9476 41.3579C45.1498 42.2545 47.1464 43.5682 48.8214 45.2225C50.4963 46.8768 51.816 48.8385 52.7036 50.9936C53.5913 53.1486 54.0291 55.4539 53.9916 57.775C53.9855 58.1593 54.0707 58.5398 54.2405 58.8869C54.4102 59.234 54.66 59.5384 54.9704 59.7764C55.2808 60.0143 55.6435 60.1795 56.0302 60.2591C56.4169 60.3386 56.8173 60.3304 57.2002 60.235C58.3403 59.951 59.5321 59.9239 60.6847 60.1559C61.8372 60.3879 62.9201 60.8728 63.8506 61.5736C64.7811 62.2744 65.5347 63.1726 66.0539 64.1996C66.5732 65.2267 66.8443 66.3556 66.8466 67.5C66.8466 69.4891 66.034 71.3968 64.5875 72.8033C63.1411 74.2098 61.1792 75 59.1336 75H15.4264C14.0591 74.9925 12.7071 74.72 11.4495 74.1983C10.1919 73.6767 9.05382 72.9164 8.10194 71.962C7.15006 71.0076 6.40346 69.8782 5.90581 68.6399C5.40816 67.4016 5.16944 66.0792 5.20363 64.7501C5.23782 63.421 5.54422 62.1119 6.10492 60.8993C6.66562 59.6868 7.46935 58.5951 8.46911 57.6881C9.46886 56.7812 10.6446 56.0772 11.9275 55.6174C13.2103 55.1575 14.5747 54.9511 15.9406 55.01C16.5331 55.0397 17.1179 54.8692 17.5958 54.5275C18.0738 54.1857 18.4155 53.6938 18.563 53.135C19.5604 49.3766 21.8138 46.0469 24.9691 43.6694C28.1244 41.2918 32.0027 40.001 35.9945 40ZM58.9947 55C58.4162 49.9307 56.0836 45.2029 52.3793 41.5918C48.675 37.9807 43.8189 35.7006 38.6071 35.1252C33.3953 34.5499 28.137 35.7134 23.6945 38.4251C19.252 41.1369 15.8888 45.2358 14.1563 50.05C10.1864 50.366 6.49598 52.1629 3.85767 55.0647C1.21936 57.9665 -0.162352 61.7481 0.00175798 65.618C0.165868 69.488 1.86308 73.1461 4.73812 75.8268C7.61317 78.5075 11.4432 80.0029 15.4264 80H59.1336C62.543 80 65.8127 78.6831 68.2235 76.3389C70.6343 73.9947 71.9886 70.8152 71.9886 67.5C71.9886 64.1848 70.6343 61.0054 68.2235 58.6612C65.8127 56.317 62.543 55 59.1336 55H58.9947Z" fill="black"/>
<path d="M52.5 7.5C52.5 6.83696 52.2366 6.20107 51.7677 5.73223C51.2989 5.26339 50.663 5 50 5C49.3369 5 48.701 5.26339 48.2322 5.73223C47.7634 6.20107 47.5 6.83696 47.5 7.5V12.5C47.5 13.163 47.7634 13.7989 48.2322 14.2678C48.701 14.7366 49.3369 15 50 15C50.663 15 51.2989 14.7366 51.7677 14.2678C52.2366 13.7989 52.5 13.163 52.5 12.5V7.5ZM71.215 17.32C71.4537 17.0894 71.6442 16.8135 71.7752 16.5085C71.9062 16.2035 71.9752 15.8755 71.9781 15.5435C71.981 15.2116 71.9177 14.8824 71.792 14.5751C71.6663 14.2679 71.4807 13.9887 71.246 13.754C71.0112 13.5193 70.7321 13.3336 70.4249 13.2079C70.1176 13.0822 69.7884 13.019 69.4565 13.0219C69.1245 13.0248 68.7965 13.0937 68.4915 13.2247C68.1864 13.3558 67.9106 13.5462 67.68 13.785L64.14 17.32C63.6705 17.7894 63.4068 18.4261 63.4068 19.09C63.4068 19.7539 63.6705 20.3906 64.14 20.86C64.6094 21.3294 65.2461 21.5932 65.91 21.5932C66.5739 21.5932 67.2105 21.3294 67.68 20.86L71.215 17.32ZM32.32 13.785C31.8485 13.3296 31.217 13.0776 30.5615 13.0833C29.906 13.089 29.2789 13.3519 28.8154 13.8155C28.3519 14.279 28.089 14.906 28.0833 15.5615C28.0776 16.217 28.3296 16.8485 28.785 17.32L32.32 20.86C32.5524 21.0924 32.8284 21.2768 33.1321 21.4026C33.4358 21.5284 33.7613 21.5932 34.09 21.5932C34.4187 21.5932 34.7442 21.5284 35.0479 21.4026C35.3516 21.2768 35.6275 21.0924 35.86 20.86C36.0924 20.6276 36.2768 20.3516 36.4026 20.0479C36.5284 19.7442 36.5931 19.4187 36.5931 19.09C36.5931 18.7613 36.5284 18.4358 36.4026 18.1321C36.2768 17.8284 36.0924 17.5524 35.86 17.32L32.32 13.785ZM40.99 30.655C41.6114 29.3672 42.5018 28.2276 43.6011 27.3132C44.7003 26.3988 45.9829 25.7307 47.3624 25.3541C48.7418 24.9775 50.1859 24.901 51.5974 25.13C53.0088 25.3589 54.3547 25.8879 55.5444 26.6813C56.734 27.4746 57.7397 28.5138 58.4936 29.7289C59.2474 30.9439 59.7319 32.3065 59.9144 33.7247C60.0969 35.1429 59.9732 36.5837 59.5515 37.95C59.1298 39.3163 58.42 40.5763 57.47 41.645C58.465 43.05 59.33 44.555 60.05 46.135C61.7444 44.604 63.067 42.7063 63.9167 40.5866C64.7665 38.4669 65.121 36.1812 64.9533 33.9037C64.7856 31.6261 64.1001 29.417 62.9491 27.4446C61.798 25.4722 60.2118 23.7887 58.3114 22.5224C56.4109 21.2561 54.2464 20.4404 51.9829 20.1376C49.7194 19.8348 47.4166 20.0528 45.2501 20.775C43.0837 21.4972 41.1107 22.7045 39.4816 24.305C37.8526 25.9054 36.6105 27.8567 35.85 30.01C37.61 30.065 39.33 30.285 40.99 30.655ZM63.41 51.025C66.41 52.1 69.035 53.975 71.02 56.385C71.2922 56.1646 71.515 55.8894 71.6741 55.5773C71.8331 55.2652 71.9248 54.9232 71.9432 54.5734C71.9616 54.2236 71.9062 53.8739 71.7808 53.5468C71.6553 53.2198 71.4626 52.9228 71.215 52.675L67.68 49.14C67.3236 48.7815 66.8669 48.5394 66.3701 48.4458C65.8733 48.3521 65.3598 48.4113 64.8973 48.6155C64.4349 48.8196 64.0452 49.1592 63.7796 49.5893C63.5141 50.0195 63.3852 50.5201 63.41 51.025ZM72.5 32.5C71.8369 32.5 71.201 32.7634 70.7322 33.2322C70.2634 33.7011 70 34.337 70 35C70 35.663 70.2634 36.2989 70.7322 36.7678C71.201 37.2366 71.8369 37.5 72.5 37.5H77.5C78.163 37.5 78.7989 37.2366 79.2677 36.7678C79.7366 36.2989 80 35.663 80 35C80 34.337 79.7366 33.7011 79.2677 33.2322C78.7989 32.7634 78.163 32.5 77.5 32.5H72.5Z" fill="black"/>
</g>
<defs>
<clipPath id="clip0_3_72">
<rect width="80" height="80" fill="white"/>
</clipPath>
</defs>
</svg>
