<svg viewBox="0 0 80 80" fill="none" xmlns="http://www.w3.org/2000/svg">
<path d="M22.03 16.71C27.0274 12.4007 33.4012 10.0207 40 10C53.45 10 64.615 20 65.83 32.895C73.79 34.02 80 40.685 80 48.865C80 57.845 72.51 65 63.435 65H18.905C8.54 65 0 56.83 0 46.59C0 37.775 6.33 30.475 14.71 28.625C15.425 24.31 18.2 20.01 22.03 16.71ZM25.295 20.495C21.51 23.76 19.53 27.695 19.53 30.775V33.015L17.305 33.26C10.32 34.025 5 39.76 5 46.59C5 53.925 11.15 60 18.905 60H63.435C69.9 60 75 54.94 75 48.865C75 42.785 69.9 37.725 63.435 37.725H60.935V35.225C60.94 24.125 51.64 15 40 15C34.5994 15.0216 29.3842 16.9672 25.295 20.495Z" fill="black"/>
</svg>
