<svg viewBox="0 0 80 80" fill="none" xmlns="http://www.w3.org/2000/svg">
<g clip-path="url(#clip0_3_96)">
<path d="M20.88 55.16C21.4994 55.3934 22.0009 55.863 22.2746 56.4657C22.5483 57.0683 22.5718 57.755 22.34 58.375L14.84 78.375C14.7341 78.6941 14.565 78.9885 14.3427 79.2407C14.1204 79.4929 13.8495 79.6977 13.5463 79.8428C13.243 79.988 12.9136 80.0704 12.5777 80.0853C12.2419 80.1001 11.9065 80.0471 11.5916 79.9294C11.2767 79.8116 10.9888 79.6316 10.745 79.4C10.5013 79.1684 10.3068 78.89 10.1732 78.5816C10.0396 78.2731 9.9695 77.9408 9.96723 77.6046C9.96496 77.2684 10.0305 76.9353 10.16 76.625L17.66 56.625C17.7751 56.3172 17.9497 56.0352 18.1738 55.795C18.398 55.5548 18.6673 55.3611 18.9663 55.225C19.2654 55.089 19.5883 55.0132 19.9167 55.002C20.245 54.9909 20.5724 55.0446 20.88 55.16ZM35.88 55.16C36.4994 55.3934 37.0009 55.863 37.2746 56.4657C37.5483 57.0683 37.5718 57.755 37.34 58.375L29.84 78.375C29.7341 78.6941 29.565 78.9885 29.3427 79.2407C29.1204 79.4929 28.8495 79.6977 28.5463 79.8428C28.243 79.988 27.9136 80.0704 27.5777 80.0853C27.2419 80.1001 26.9065 80.0471 26.5916 79.9294C26.2767 79.8116 25.9887 79.6316 25.745 79.4C25.5013 79.1684 25.3068 78.89 25.1732 78.5816C25.0396 78.2731 24.9695 77.9408 24.9672 77.6046C24.965 77.2684 25.0305 76.9353 25.16 76.625L32.66 56.625C32.7751 56.3172 32.9497 56.0352 33.1738 55.795C33.398 55.5548 33.6673 55.3611 33.9663 55.225C34.2654 55.089 34.5883 55.0132 34.9167 55.002C35.245 54.9909 35.5724 55.0446 35.88 55.16ZM50.88 55.16C51.4994 55.3934 52.0009 55.863 52.2746 56.4657C52.5483 57.0683 52.5718 57.755 52.34 58.375L44.84 78.375C44.7341 78.6941 44.565 78.9885 44.3427 79.2407C44.1204 79.4929 43.8495 79.6977 43.5463 79.8428C43.243 79.988 42.9136 80.0704 42.5777 80.0853C42.2419 80.1001 41.9065 80.0471 41.5916 79.9294C41.2767 79.8116 40.9888 79.6316 40.745 79.4C40.5013 79.1684 40.3068 78.89 40.1732 78.5816C40.0396 78.2731 39.9695 77.9408 39.9672 77.6046C39.965 77.2684 40.0305 76.9353 40.16 76.625L47.66 56.625C47.7751 56.3172 47.9497 56.0352 48.1738 55.795C48.398 55.5548 48.6673 55.3611 48.9663 55.225C49.2654 55.089 49.5883 55.0132 49.9167 55.002C50.245 54.9909 50.5724 55.0446 50.88 55.16ZM65.88 55.16C66.4994 55.3934 67.0009 55.863 67.2746 56.4657C67.5483 57.0683 67.5718 57.755 67.34 58.375L59.84 78.375C59.5909 78.9719 59.1201 79.4491 58.5266 79.7062C57.9331 79.9634 57.263 79.9804 56.6572 79.7539C56.0513 79.5273 55.5569 79.0748 55.2777 78.4913C54.9985 77.9079 54.9563 77.2389 55.16 76.625L62.66 56.625C62.7751 56.3172 62.9497 56.0352 63.1738 55.795C63.398 55.5548 63.6673 55.3611 63.9663 55.225C64.2654 55.089 64.5883 55.0132 64.9167 55.002C65.245 54.9909 65.5724 55.0446 65.88 55.16ZM67.025 20.135C65.9867 14.9008 63.3011 10.136 59.361 6.53737C55.4209 2.93872 50.4328 0.694909 45.1262 0.134023C39.8196 -0.426863 34.4727 0.724591 29.8673 3.42003C25.2619 6.11547 21.6396 10.2135 19.53 15.115C17.1642 14.8424 14.7676 15.0556 12.4871 15.7415C10.2065 16.4274 8.08996 17.5715 6.26696 19.1039C4.44397 20.6362 2.95292 22.5245 1.88509 24.6531C0.817256 26.7818 0.195123 29.1059 0.0567772 31.4834C-0.0815687 33.8608 0.266784 36.2415 1.08051 38.4796C1.89423 40.7177 3.1562 42.7662 4.78915 44.4997C6.42211 46.2331 8.39168 47.615 10.5773 48.5608C12.7629 49.5065 15.1185 49.9963 17.5 50H65C68.8055 50.0043 72.4705 48.5621 75.2524 45.9653C78.0344 43.3686 79.7253 39.8116 79.9828 36.0147C80.2402 32.2179 79.0449 28.4652 76.6389 25.5167C74.233 22.5682 70.7963 20.6444 67.025 20.135ZM42.5 4.99998C47.4198 4.99896 52.1673 6.81133 55.8349 10.0905C59.5024 13.3698 61.8327 17.8857 62.38 22.775C62.448 23.3893 62.7411 23.9566 63.2028 24.3675C63.6644 24.7784 64.262 25.0037 64.88 25H65C67.6522 25 70.1957 26.0536 72.0711 27.9289C73.9464 29.8043 75 32.3478 75 35C75 37.6521 73.9464 40.1957 72.0711 42.0711C70.1957 43.9464 67.6522 45 65 45H17.5C15.7303 44.9991 13.9811 44.6225 12.3679 43.8951C10.7547 43.1676 9.3143 42.1059 8.14206 40.7803C6.96981 39.4546 6.09241 37.8951 5.5679 36.205C5.04338 34.5149 4.8837 32.7326 5.09942 30.9762C5.31514 29.2198 5.90134 27.5292 6.81926 26.0162C7.73717 24.5033 8.96586 23.2024 10.4241 22.1998C11.8823 21.1972 13.5367 20.5156 15.278 20.2002C17.0193 19.8847 18.8077 19.9426 20.525 20.37C21.1376 20.5228 21.7854 20.4381 22.3382 20.133C22.891 19.8278 23.3078 19.3248 23.505 18.725C24.8264 14.7309 27.3731 11.2548 30.7831 8.79088C34.1931 6.32694 38.2929 5.00047 42.5 4.99998Z" fill="black"/>
</g>
<defs>
<clipPath id="clip0_3_96">
<rect width="80" height="80" fill="white"/>
</clipPath>
</defs>
</svg>
