<svg viewBox="0 0 80 80" fill="none" xmlns="http://www.w3.org/2000/svg">
<path d="M18.6888 64.5798C18.9694 64.6601 19.2287 64.787 19.452 64.9533C19.6754 65.1197 19.8583 65.3221 19.9904 65.5492C20.1225 65.7762 20.2011 66.0233 20.2218 66.2764C20.2425 66.5296 20.2049 66.7837 20.111 67.0243L17.8607 72.817C17.6559 73.2845 17.2479 73.6657 16.7224 73.8805C16.197 74.0953 15.595 74.1271 15.0429 73.9692C14.4907 73.8113 14.0313 73.4759 13.7612 73.0335C13.4911 72.5911 13.4312 72.0762 13.5942 71.5967L15.8445 65.804C16.0325 65.3181 16.4378 64.9161 16.9712 64.6865C17.5046 64.4569 18.1225 64.4186 18.6888 64.5798ZM32.1905 64.5798C32.4711 64.6601 32.7304 64.787 32.9537 64.9533C33.1771 65.1197 33.36 65.3221 33.4921 65.5492C33.6242 65.7762 33.7028 66.0233 33.7235 66.2764C33.7442 66.5296 33.7066 66.7837 33.6127 67.0243L29.1121 78.6097C28.9073 79.0772 28.4993 79.4584 27.9739 79.6732C27.4484 79.888 26.8464 79.9198 26.2943 79.7619C25.7421 79.604 25.2828 79.2686 25.0126 78.8262C24.7425 78.3838 24.6826 77.8689 24.8456 77.3894L29.3462 65.804C29.5342 65.3181 29.9395 64.9161 30.4729 64.6865C31.0063 64.4569 31.6242 64.4186 32.1905 64.5798ZM45.6922 64.5798C45.9728 64.6601 46.2321 64.787 46.4554 64.9533C46.6788 65.1197 46.8617 65.3221 46.9938 65.5492C47.1259 65.7762 47.2045 66.0233 47.2252 66.2764C47.2459 66.5296 47.2083 66.7837 47.1144 67.0243L44.8641 72.817C44.6593 73.2845 44.2513 73.6657 43.7258 73.8805C43.2004 74.0953 42.5984 74.1271 42.0463 73.9692C41.4941 73.8113 41.0347 73.4759 40.7646 73.0335C40.4945 72.5911 40.4346 72.0762 40.5976 71.5967L42.8479 65.804C43.0359 65.3181 43.4412 64.9161 43.9746 64.6865C44.508 64.4569 45.1259 64.4186 45.6922 64.5798ZM59.1939 64.5798C59.4745 64.6601 59.7338 64.787 59.9571 64.9533C60.1805 65.1197 60.3634 65.3221 60.4955 65.5492C60.6276 65.7762 60.7062 66.0233 60.7269 66.2764C60.7476 66.5296 60.71 66.7837 60.6161 67.0243L56.1156 78.6097C56.0308 78.8591 55.8883 79.0912 55.6965 79.2922C55.5048 79.4932 55.2678 79.6589 54.9996 79.7794C54.7315 79.9 54.4378 79.9729 54.1361 79.9938C53.8344 80.0146 53.5308 79.983 53.2437 79.9009C52.9565 79.8188 52.6916 79.6878 52.4648 79.5157C52.238 79.3437 52.054 79.1342 51.9238 78.8997C51.7936 78.6652 51.7199 78.4106 51.707 78.1511C51.6942 77.8916 51.7425 77.6325 51.849 77.3894L56.3496 65.804C56.5376 65.3181 56.9429 64.9161 57.4763 64.6865C58.0097 64.4569 58.6276 64.4186 59.1939 64.5798ZM60.3056 37.5549C59.371 33.5123 56.9537 29.8322 53.4071 27.0527C49.8605 24.2732 45.3708 22.5402 40.5942 22.107C35.8176 21.6738 31.0048 22.5631 26.8594 24.645C22.7141 26.7268 19.4536 29.892 17.5547 33.6777C15.4252 33.4672 13.268 33.6319 11.2153 34.1616C9.16252 34.6914 7.25737 35.575 5.61648 36.7585C3.97558 37.9421 2.63346 39.4005 1.67229 41.0446C0.71112 42.6886 0.15113 44.4838 0.0266033 46.32C-0.0979237 48.1562 0.215633 49.995 0.948076 51.7236C1.68052 53.4522 2.81644 55.0344 4.28628 56.3732C5.75612 57.7121 7.52896 58.7794 9.49625 59.5099C11.4635 60.2404 13.5839 60.6186 15.7275 60.6215H58.4828C61.9083 60.6248 65.2071 59.5109 67.7112 57.5053C70.2153 55.4997 71.7373 52.7524 71.969 49.8198C72.2008 46.8873 71.1249 43.9888 68.9592 41.7115C66.7936 39.4342 63.7002 37.9484 60.3056 37.5549ZM38.2303 25.8653C42.6587 25.8645 46.932 27.2643 50.2332 29.797C53.5344 32.3298 55.6319 35.8177 56.1245 39.594C56.1857 40.0684 56.4496 40.5066 56.8651 40.824C57.2807 41.1413 57.8185 41.3154 58.3748 41.3125H58.4828C60.8701 41.3125 63.1596 42.1262 64.8476 43.5747C66.5357 45.0231 67.484 46.9877 67.484 49.0361C67.484 51.0845 66.5357 53.049 64.8476 54.4975C63.1596 55.9459 60.8701 56.7597 58.4828 56.7597H15.7275C14.1346 56.759 12.56 56.4681 11.108 55.9063C9.65591 55.3444 8.35942 54.5244 7.30427 53.5005C6.24912 52.4766 5.45936 51.2721 4.98723 49.9668C4.51511 48.6614 4.37138 47.2849 4.56555 45.9283C4.75973 44.5717 5.28738 43.2659 6.1136 42.0974C6.93982 40.9288 8.04579 39.9241 9.35833 39.1497C10.6709 38.3754 12.1601 37.8489 13.7274 37.6053C15.2948 37.3617 16.9046 37.4064 18.4503 37.7364C19.0018 37.8545 19.5848 37.7891 20.0824 37.5534C20.58 37.3177 20.9552 36.9292 21.1326 36.4659C22.3221 33.381 24.6143 30.6963 27.6837 28.7932C30.7531 26.8902 34.4435 25.8657 38.2303 25.8653Z" fill="black"/>
<path d="M57.8072 5.68065C58.0168 5.38422 58.1239 5.03365 58.1139 4.67726C58.1038 4.32086 57.977 3.97619 57.7511 3.69075C57.5251 3.40531 57.211 3.19314 56.8521 3.08351C56.4932 2.97387 56.1071 2.97215 55.7471 3.07859C51.9719 4.19612 48.7367 6.54033 46.6146 9.69613C44.4925 12.8519 43.6202 16.6157 44.1523 20.3211C45.4565 20.441 46.7449 20.6822 47.999 21.0414C47.436 18.7733 47.5593 16.4013 48.355 14.1963C49.1506 11.9913 50.5864 10.0424 52.4984 8.57221C51.8669 10.8738 51.7921 13.2803 52.2794 15.613C52.7668 17.9457 53.8039 20.1446 55.3137 22.0465C56.8235 23.9484 58.7672 25.5043 61.0004 26.5988C63.2336 27.6933 65.699 28.2982 68.2134 28.3685C65.824 29.9383 62.9477 30.7075 60.0423 30.5536C60.633 31.6461 61.118 32.8006 61.4789 34C64.1115 33.894 66.6804 33.202 68.9766 31.9803C71.2727 30.7586 73.2312 29.0417 74.6927 26.9693C74.9023 26.6728 75.0094 26.3223 74.9993 25.9659C74.9893 25.6095 74.8625 25.2648 74.6365 24.9794C74.4105 24.6939 74.0965 24.4818 73.7375 24.3721C73.3786 24.2625 72.9926 24.2608 72.6326 24.3672C70.0464 25.1345 67.272 25.1247 64.692 24.339C62.1119 23.5533 59.8532 22.0306 58.2272 19.9806C56.6013 17.9306 55.688 15.4544 55.6134 12.8932C55.5389 10.332 56.303 7.81206 57.8072 5.68065Z" fill="black"/>
</svg>
