<svg viewBox="0 0 80 80" fill="none" xmlns="http://www.w3.org/2000/svg">
<path d="M40 80C39.3369 80 38.7011 79.7366 38.2322 79.2678C37.7634 78.7989 37.5 78.163 37.5 77.5V71.035L34.27 74.27C33.8005 74.7388 33.1641 75.0019 32.5007 75.0014C31.8373 75.0009 31.2013 74.7369 30.7325 74.2675C30.2637 73.7981 30.0006 73.1616 30.0011 72.4982C30.0016 71.8348 30.2655 71.1988 30.735 70.73L37.5 63.965V44.33L20.5 54.145L18.02 63.395C17.8476 64.0355 17.4278 64.5813 16.853 64.9123C16.2782 65.2433 15.5955 65.3324 14.955 65.16C14.3145 64.9876 13.7687 64.5678 13.4377 63.993C13.1067 63.4182 13.0176 62.7355 13.19 62.095L14.375 57.685L8.77498 60.915C8.20109 61.2413 7.52143 61.3273 6.88432 61.1544C6.24721 60.9814 5.70439 60.5635 5.3743 59.9917C5.0442 59.42 4.95365 58.7409 5.12239 58.1027C5.29113 57.4645 5.70547 56.9189 6.27498 56.585L11.875 53.355L7.45498 52.17C7.13784 52.0846 6.84062 51.9376 6.58028 51.7374C6.31994 51.5372 6.10159 51.2877 5.9377 51.003C5.7738 50.7184 5.66757 50.4043 5.62507 50.0787C5.58256 49.753 5.60462 49.4221 5.68998 49.105C5.77534 48.7879 5.92233 48.4906 6.12256 48.2303C6.32278 47.97 6.57233 47.7516 6.85694 47.5877C7.14155 47.4238 7.45566 47.3176 7.78132 47.2751C8.10699 47.2326 8.43784 47.2546 8.75498 47.34L17.995 49.815L35 40L18 30.185L8.74998 32.66C8.11365 32.8186 7.44048 32.7208 6.87558 32.3877C6.31068 32.0546 5.89928 31.5129 5.73006 30.8793C5.56084 30.2457 5.64735 29.571 5.97095 29.0006C6.29455 28.4302 6.82931 28.0098 7.45998 27.83L11.875 26.645L6.27498 23.415C5.98837 23.252 5.73682 23.034 5.53481 22.7734C5.33281 22.5129 5.18434 22.2149 5.09796 21.8967C5.01157 21.5785 4.98898 21.2464 5.03147 20.9195C5.07397 20.5925 5.18072 20.2772 5.34557 19.9917C5.51043 19.7062 5.73013 19.4561 5.99203 19.2558C6.25394 19.0555 6.55287 18.909 6.87162 18.8248C7.19036 18.7405 7.52263 18.7201 7.84929 18.7648C8.17595 18.8094 8.49055 18.9183 8.77498 19.085L14.375 22.315L13.19 17.9C13.099 17.5809 13.0725 17.2469 13.1119 16.9174C13.1514 16.5879 13.256 16.2696 13.4197 15.981C13.5835 15.6924 13.803 15.4392 14.0656 15.2363C14.3282 15.0335 14.6285 14.8849 14.9491 14.7992C15.2697 14.7136 15.6041 14.6927 15.9329 14.7376C16.2616 14.7826 16.5782 14.8925 16.864 15.0611C17.1498 15.2296 17.3993 15.4534 17.5977 15.7193C17.7962 15.9852 17.9397 16.288 18.02 16.61L20.495 25.855L37.5 35.67V16.035L30.735 9.27C30.5025 9.03789 30.3181 8.76227 30.1922 8.45887C30.0663 8.15548 30.0013 7.83026 30.0011 7.50177C30.0009 7.17328 30.0653 6.84796 30.1908 6.54439C30.3163 6.24082 30.5004 5.96494 30.7325 5.7325C30.9646 5.50006 31.2402 5.31561 31.5436 5.18969C31.847 5.06377 32.1722 4.99884 32.5007 4.99861C32.8292 4.99838 33.1545 5.06285 33.4581 5.18834C33.7617 5.31383 34.0375 5.49789 34.27 5.73L37.5 8.965V2.5C37.5 1.83696 37.7634 1.20107 38.2322 0.732233C38.7011 0.263392 39.3369 0 40 0C40.663 0 41.2989 0.263392 41.7677 0.732233C42.2366 1.20107 42.5 1.83696 42.5 2.5V8.965L45.735 5.73C46.2044 5.26123 46.8408 4.99814 47.5042 4.99861C48.1677 4.99908 48.8037 5.26307 49.2725 5.7325C49.7412 6.20193 50.0043 6.83836 50.0039 7.50177C50.0034 8.16518 49.7394 8.80123 49.27 9.27L42.5 16.035V35.67L59.5 25.855L61.98 16.605C62.1524 15.9645 62.5721 15.4187 63.1469 15.0877C63.7217 14.7567 64.4045 14.6676 65.045 14.84C65.6855 15.0124 66.2313 15.4322 66.5623 16.007C66.8933 16.5818 66.9824 17.2645 66.81 17.905L65.63 22.315L71.23 19.085C71.8039 18.7587 72.4835 18.6727 73.1206 18.8456C73.7577 19.0186 74.3006 19.4365 74.6307 20.0083C74.9608 20.58 75.0513 21.2591 74.8826 21.8973C74.7138 22.5355 74.2995 23.0811 73.73 23.415L68.13 26.645L72.545 27.83C73.1855 28.0024 73.7313 28.4222 74.0623 28.997C74.3933 29.5718 74.4824 30.2545 74.31 30.895C74.1376 31.5355 73.7178 32.0813 73.143 32.4123C72.5682 32.7433 71.8855 32.8324 71.245 32.66L62.005 30.185L45 40L62 49.815L71.245 47.34C71.8855 47.1683 72.568 47.258 73.1423 47.5895C73.7166 47.921 74.1357 48.467 74.3075 49.1075C74.4792 49.748 74.3895 50.4305 74.058 51.0048C73.7265 51.5791 73.1805 51.9983 72.54 52.17L68.125 53.355L73.725 56.585C74.2945 56.9189 74.7088 57.4645 74.8776 58.1027C75.0463 58.7409 74.9558 59.42 74.6257 59.9917C74.2956 60.5635 73.7527 60.9814 73.1156 61.1544C72.4785 61.3273 71.7989 61.2413 71.225 60.915L65.625 57.685L66.805 62.1C66.896 62.4191 66.9225 62.7531 66.883 63.0826C66.8436 63.4121 66.739 63.7304 66.5752 64.019C66.4115 64.3076 66.1919 64.5608 65.9294 64.7637C65.6668 64.9665 65.3665 65.1151 65.0459 65.2008C64.7253 65.2864 64.3908 65.3073 64.0621 65.2624C63.7333 65.2174 63.4168 65.1075 63.131 64.9389C62.8451 64.7704 62.5957 64.5466 62.3972 64.2807C62.1988 64.0148 62.0552 63.712 61.975 63.39L59.5 54.145L42.5 44.33V63.965L49.265 70.73C49.7344 71.1988 49.9984 71.8348 49.9989 72.4982C49.9993 73.1616 49.7362 73.7981 49.2675 74.2675C48.7987 74.7369 48.1627 75.0009 47.4992 75.0014C46.8358 75.0019 46.1994 74.7388 45.73 74.27L42.495 71.035V77.5C42.495 78.163 42.2316 78.7989 41.7627 79.2678C41.2939 79.7366 40.663 80 40 80Z" fill="black"/>
</svg>
