<svg viewBox="0 0 80 80" fill="none" xmlns="http://www.w3.org/2000/svg">
<g clip-path="url(#clip0_3_102)">
<path d="M42.5 15.0001C38.2921 14.9995 34.1911 16.3255 30.7801 18.7895C27.3691 21.2535 24.8217 24.7301 23.5 28.7251C23.4068 29.0482 23.2494 29.3491 23.0372 29.61C22.825 29.8708 22.5624 30.0862 22.265 30.2432C21.9676 30.4002 21.6417 30.4955 21.3066 30.5236C20.9715 30.5517 20.6342 30.5119 20.3148 30.4065C19.9955 30.3012 19.7007 30.1325 19.448 29.9106C19.1954 29.6887 18.9901 29.4181 18.8445 29.115C18.6989 28.8119 18.6159 28.4826 18.6005 28.1467C18.5851 27.8107 18.6377 27.4752 18.755 27.1601C20.4905 21.9191 23.9114 17.3996 28.4844 14.3063C33.0573 11.2131 38.5252 9.71985 44.0356 10.0595C49.546 10.3991 54.7892 12.5525 58.9477 16.1839C63.1062 19.8153 65.9462 24.7206 67.025 30.1351C70.7963 30.6445 74.233 32.5683 76.639 35.5167C79.0449 38.4652 80.2402 42.218 79.9828 46.0148C79.7253 49.8116 78.0344 53.3687 75.2524 55.9654C72.4705 58.5621 68.8055 60.0044 65 60.0001H22.5C21.837 60.0001 21.2011 59.7367 20.7322 59.2678C20.2634 58.799 20 58.1631 20 57.5001C20 56.837 20.2634 56.2011 20.7322 55.7323C21.2011 55.2634 21.837 55.0001 22.5 55.0001H65C67.6522 55.0007 70.196 53.9478 72.0718 52.0729C73.9476 50.198 75.0018 47.6547 75.0025 45.0026C75.0032 42.3504 73.9502 39.8066 72.0753 37.9308C70.2004 36.0549 67.6572 35.0007 65.005 35.0001H64.875C64.257 35.0038 63.6594 34.7785 63.1978 34.3676C62.7361 33.9567 62.443 33.3894 62.375 32.7751C61.8278 27.8867 59.4983 23.3714 55.8318 20.0923C52.1652 16.8132 47.4189 15.0003 42.5 15.0001ZM0 37.5001C0 36.837 0.263392 36.2011 0.732233 35.7323C1.20107 35.2635 1.83696 35.0001 2.5 35.0001H27.5C28.163 35.0001 28.7989 35.2635 29.2678 35.7323C29.7366 36.2011 30 36.837 30 37.5001C30 38.1631 29.7366 38.799 29.2678 39.2678C28.7989 39.7367 28.163 40.0001 27.5 40.0001H2.5C1.83696 40.0001 1.20107 39.7367 0.732233 39.2678C0.263392 38.799 0 38.1631 0 37.5001ZM10 47.5001C10 46.837 10.2634 46.2011 10.7322 45.7323C11.2011 45.2634 11.837 45.0001 12.5 45.0001H57.5C58.163 45.0001 58.7989 45.2634 59.2678 45.7323C59.7366 46.2011 60 46.837 60 47.5001C60 48.1631 59.7366 48.799 59.2678 49.2678C58.7989 49.7367 58.163 50.0001 57.5 50.0001H12.5C11.837 50.0001 11.2011 49.7367 10.7322 49.2678C10.2634 48.799 10 48.1631 10 47.5001ZM0 67.5001C0 66.837 0.263392 66.2011 0.732233 65.7323C1.20107 65.2634 1.83696 65.0001 2.5 65.0001H47.5C48.163 65.0001 48.7989 65.2634 49.2678 65.7323C49.7366 66.2011 50 66.837 50 67.5001C50 68.1631 49.7366 68.799 49.2678 69.2678C48.7989 69.7367 48.163 70.0001 47.5 70.0001H2.5C1.83696 70.0001 1.20107 69.7367 0.732233 69.2678C0.263392 68.799 0 68.1631 0 67.5001Z" fill="black"/>
</g>
<defs>
<clipPath id="clip0_3_102">
<rect width="80" height="80" fill="white"/>
</clipPath>
</defs>
</svg>
