<svg viewBox="0 0 80 80" fill="none" xmlns="http://www.w3.org/2000/svg">
<path fill-rule="evenodd" clip-rule="evenodd" d="M36.05 4C38.45 1.475 40 0 40 0C40.545 1.815 41.17 3.54 41.855 5.19C45.915 14.92 52.22 21.94 57.84 28.19C64.39 35.48 70 41.725 70 50C70 57.9565 66.8393 65.5871 61.2132 71.2132C55.5871 76.8393 47.9565 80 40 80C32.0435 80 24.4129 76.8393 18.7868 71.2132C13.1607 65.5871 10 57.9565 10 50C10 33.34 27.9 12.585 36.05 4ZM38.115 9.105C34.904 12.5797 31.8526 16.1984 28.97 19.95C25.34 24.7 21.79 29.99 19.17 35.3C16.52 40.665 15 45.69 15 50C15 56.6304 17.6339 62.9893 22.3223 67.6777C27.0107 72.3661 33.3696 75 40 75C46.6304 75 52.9893 72.3661 57.6777 67.6777C62.3661 62.9893 65 56.6304 65 50C65 43.995 61.02 39.215 54.095 31.5L53.945 31.34C48.75 25.55 42.5 18.605 38.115 9.105Z" fill="black"/>
</svg>
