<svg viewBox="0 0 80 80" fill="none" xmlns="http://www.w3.org/2000/svg">
<g clip-path="url(#clip0_3_59)">
<path fill-rule="evenodd" clip-rule="evenodd" d="M40 0C40.663 0 41.2989 0.263392 41.7678 0.732233C42.2366 1.20107 42.5 1.83696 42.5 2.5V5.07C63.125 6.19 80 21.1 80 40C80 40 80 42.5 77.5 42.5C76.755 42.5 75.74 41.775 75.74 41.775L75.72 41.755L75.595 41.64C74.7365 40.8943 73.8071 40.2345 72.82 39.67C70.4462 38.2794 67.7509 37.5315 65 37.5C61.81 37.5 59.11 38.565 57.18 39.67C56.1929 40.2345 55.2635 40.8943 54.405 41.64L54.28 41.755L54.265 41.77C54.265 41.77 53.245 42.5 52.5 42.5C51.755 42.5 50.74 41.775 50.74 41.775L50.72 41.755L50.595 41.64C49.7365 40.8943 48.8071 40.2345 47.82 39.67C46.1724 38.7181 44.3725 38.0584 42.5 37.72V67.5V67.695L42.475 68.11C42.3408 70.026 41.8347 71.8975 40.985 73.62C40.1202 75.3952 38.8047 76.9124 37.17 78.02C35.3 79.255 32.935 80 30 80C27.065 80 24.695 79.26 22.83 78.02C21.195 76.9127 19.8794 75.3954 19.015 73.62C18.1045 71.7717 17.5901 69.7536 17.505 67.695V67.57L17.5 67.525V67.51C17.5 67.51 17.5 67.5 20 67.5H17.5V65C17.5 64.337 17.7634 63.7011 18.2322 63.2322C18.7011 62.7634 19.337 62.5 20 62.5C20.663 62.5 21.2989 62.7634 21.7678 63.2322C22.2366 63.7011 22.5 64.337 22.5 65V67.53L22.515 67.75C22.6025 69.0116 22.9336 70.2443 23.49 71.38C23.965 72.335 24.64 73.215 25.605 73.855C26.555 74.49 27.935 75 30 75C32.065 75 33.445 74.49 34.395 73.855C35.36 73.215 36.035 72.335 36.515 71.38C37.1031 70.1775 37.4383 68.8672 37.5 67.53V37.72C35.6275 38.0584 33.8276 38.7181 32.18 39.67C31.1444 40.2637 30.1726 40.9624 29.28 41.755L29.26 41.775C29.26 41.775 28.25 42.5 27.5 42.5C26.755 42.5 25.74 41.775 25.74 41.775L25.72 41.755C24.8274 40.9624 23.8556 40.2637 22.82 39.67C20.4462 38.2794 17.7509 37.5315 15 37.5C11.81 37.5 9.115 38.565 7.18 39.67C6.14441 40.2637 5.17263 40.9624 4.28 41.755L4.26 41.775C4.26 41.775 3.25 42.5 2.5 42.5C0 42.5 0 40 0 40C0 21.1 16.875 6.19 37.5 5.07V2.5C37.5 1.83696 37.7634 1.20107 38.2322 0.732233C38.7011 0.263392 39.337 0 40 0Z" fill="black"/>
</g>
<defs>
<clipPath id="clip0_3_59">
<rect width="80" height="80" fill="white"/>
</clipPath>
</defs>
</svg>
