<svg viewBox="0 0 80 80" fill="none" xmlns="http://www.w3.org/2000/svg">
<g clip-path="url(#clip0_3_57)">
<path d="M62.5 10C59.1848 10 56.0054 11.317 53.6612 13.6612C51.317 16.0054 50 19.1848 50 22.5C50 23.163 49.7366 23.7989 49.2678 24.2678C48.7989 24.7366 48.163 25 47.5 25C46.837 25 46.2011 24.7366 45.7322 24.2678C45.2634 23.7989 45 23.163 45 22.5C45 19.0388 46.0264 15.6554 47.9493 12.7775C49.8722 9.89967 52.6053 7.65665 55.803 6.33212C59.0007 5.00758 62.5194 4.66102 65.9141 5.33627C69.3088 6.01151 72.4269 7.67822 74.8744 10.1256C77.3218 12.5731 78.9885 15.6913 79.6637 19.0859C80.339 22.4806 79.9924 25.9993 78.6679 29.197C77.3434 32.3947 75.1003 35.1278 72.2225 37.0507C69.3446 38.9737 65.9612 40 62.5 40H2.5C1.83696 40 1.20107 39.7366 0.732233 39.2678C0.263392 38.7989 0 38.163 0 37.5C0 36.837 0.263392 36.2011 0.732233 35.7322C1.20107 35.2634 1.83696 35 2.5 35H62.5C65.8152 35 68.9946 33.683 71.3388 31.3388C73.683 28.9946 75 25.8152 75 22.5C75 19.1848 73.683 16.0054 71.3388 13.6612C68.9946 11.317 65.8152 10 62.5 10ZM27.5 15C26.1739 15 24.9021 15.5268 23.9645 16.4645C23.0268 17.4022 22.5 18.6739 22.5 20C22.5 20.663 22.2366 21.2989 21.7678 21.7678C21.2989 22.2366 20.663 22.5 20 22.5C19.337 22.5 18.7011 22.2366 18.2322 21.7678C17.7634 21.2989 17.5 20.663 17.5 20C17.5 18.0222 18.0865 16.0888 19.1853 14.4443C20.2841 12.7998 21.8459 11.5181 23.6732 10.7612C25.5004 10.0043 27.5111 9.8063 29.4509 10.1922C31.3907 10.578 33.1725 11.5304 34.5711 12.9289C35.9696 14.3275 36.922 16.1093 37.3079 18.0491C37.6937 19.9889 37.4957 21.9996 36.7388 23.8268C35.9819 25.6541 34.7002 27.2159 33.0557 28.3147C31.4112 29.4135 29.4778 30 27.5 30H2.5C1.83696 30 1.20107 29.7366 0.732233 29.2678C0.263392 28.7989 0 28.163 0 27.5C0 26.837 0.263392 26.2011 0.732233 25.7322C1.20107 25.2634 1.83696 25 2.5 25H27.5C28.8261 25 30.0979 24.4732 31.0355 23.5355C31.9732 22.5979 32.5 21.3261 32.5 20C32.5 18.6739 31.9732 17.4022 31.0355 16.4645C30.0979 15.5268 28.8261 15 27.5 15ZM0 47.5C0 46.837 0.263392 46.2011 0.732233 45.7322C1.20107 45.2634 1.83696 45 2.5 45H52.71C55.6767 45 58.5768 45.8797 61.0436 47.528C63.5103 49.1762 65.4329 51.5189 66.5682 54.2598C67.7035 57.0006 68.0006 60.0166 67.4218 62.9264C66.843 65.8361 65.4144 68.5088 63.3166 70.6066C61.2188 72.7044 58.5461 74.133 55.6364 74.7118C52.7266 75.2906 49.7106 74.9935 46.9697 73.8582C44.2289 72.7229 41.8862 70.8003 40.238 68.3336C38.5897 65.8668 37.71 62.9667 37.71 60C37.71 59.337 37.9734 58.7011 38.4422 58.2322C38.9111 57.7634 39.547 57.5 40.21 57.5C40.873 57.5 41.5089 57.7634 41.9778 58.2322C42.4466 58.7011 42.71 59.337 42.71 60C42.71 61.9778 43.2965 63.9112 44.3953 65.5557C45.4941 67.2002 47.0559 68.4819 48.8832 69.2388C50.7104 69.9957 52.7211 70.1937 54.6609 69.8079C56.6007 69.422 58.3825 68.4696 59.7811 67.0711C61.1796 65.6726 62.132 63.8907 62.5179 61.9509C62.9037 60.0111 62.7057 58.0004 61.9488 56.1732C61.1919 54.3459 59.9102 52.7841 58.2657 51.6853C56.6212 50.5865 54.6878 50 52.71 50H2.5C1.83696 50 1.20107 49.7366 0.732233 49.2678C0.263392 48.7989 0 48.1631 0 47.5Z" fill="black"/>
</g>
<defs>
<clipPath id="clip0_3_57">
<rect width="80" height="80" fill="white"/>
</clipPath>
</defs>
</svg>
